# xmcd
#
# Track frame offsets:
# 150
# 32607
# 45027
# 58265
# 77400
# 96536
# 109283
# 132044
# 155052
# 171380
# 191337
# 205819
# 221575
# 239129
# 259100
# 275842
# 298303
#
# Disc length: 4226 seconds
#
#
# Revision: 0
# Processed by: cddbd v1.5.1PL2 Copyright (c) Steve Scherf et al.
# Submitted via: FreeRIP 2.945 
#
DISCID=06108011
DTITLE=Eric Clapton - The Cream Of Clapton
DYEAR=1994
DGENRE=Rock
TTITLE0=Layla
TTITLE1=Badge
TTITLE2=I Feel Free
TTITLE3=Sunshine Of Your Love
TTITLE4=Crossroads
TTITLE5=Strange Brew
TTITLE6=White Room
TTITLE7=Bell Bottom Blues
TTITLE8=Cocaine
TTITLE9=I Shot The Sheriff
TTITLE10=After Midnight
TTITLE11=Swing Low Sweet Chariot
TTITLE12=Lay Down Sally
TTITLE13=Knockin´ On Heavens Door
TTITLE14=Wonderful Tonight
TTITLE15=Let It Grow
TTITLE16=I Can´t Stand It
EXTD=
EXTT0=
EXTT1=
EXTT2=
EXTT3=
EXTT4=
EXTT5=
EXTT6=
EXTT7=
EXTT8=
EXTT9=
EXTT10=
EXTT11=
EXTT12=
EXTT13=
EXTT14=
EXTT15=
EXTT16=
PLAYORDER=
